<?xml version="1.0" encoding="UTF-8"?>
<svg enable-background="new 0 0 605.208 444.792" viewBox="0 0 596.89648 210.25652" xmlns="http://www.w3.org/2000/svg">
 <g transform="translate(-6.2719 -83.614)">
  <path d="m600.3262,216.0267c-2.969-1.649-35.291-25.727-76.52-42.218s-83.869-21.278-87.076-20.779-8.684,5.805-9.895,8.905c-4.264,10.923.99,10.555-28.035,37.601-22.477,20.944-42.768,25.27-50.783,26.158-2.348-2.031-3.527-2.85-3.527-2.85s10.334-5.937 13.412-11.214-2.859-10.994-2.859-10.994 3.078-.44 6.596,1.539c0,0-1.377-2.243-3.586-4.736 16.574-3.177 24.148-13.32 33.711-41.44 10.994-32.323-10.115-73.882-14.072-72.343s-28.805,10.335-44.637,34.743c-13.174,20.31-14.928,45.183-15.146,52.964-3.412-.958-10.408-2.445-17.83-1.239-1.343-9.097-5.454-26.202-18.038-44.029-.722-1.023-1.451-2.025-2.183-3.018l-.626-.842c-.582-.78-1.167-1.549-1.752-2.31l-.507-.66c-.73-.938-1.464-1.86-2.199-2.767-.176-.218-.354-.43-.53-.646-.587-.717-1.174-1.423-1.762-2.12l-.644-.759c-.736-.863-1.474-1.715-2.209-2.544l-.079-.089c-.725-.815-1.447-1.609-2.168-2.391l-.646-.695c-.586-.628-1.17-1.246-1.753-1.852-.168-.175-.337-.354-.505-.527-.727-.749-1.449-1.479-2.167-2.192l-.51-.5c-.574-.565-1.145-1.118-1.712-1.659l-.603-.573c-.71-.669-1.416-1.326-2.113-1.958l-.039-.034c-.688-.623-1.365-1.22-2.038-1.804-.191-.166-.38-.329-.57-.492-.548-.47-1.09-.928-1.626-1.372l-.423-.352c-.656-.538-1.302-1.056-1.937-1.552l-.421-.324c-.51-.395-1.012-.776-1.507-1.143l-.497-.368c-.607-.444-1.207-.875-1.789-1.275l-.031-.021c-.571-.393-1.124-.757-1.666-1.107l-.204-.135-.182-.11c-4.108-2.605-7.356-3.94-9.237-3.811-4.298.296-32.543,29.465-10.994,82.458 6.989,17.188 22.526,24.709 34.828,28.001-1.027.588-7.93,4.738-12.399,12.458 0,0 6.157-2.858 11.435-3.078 0,0-5.277.88-7.037,5.937s.879,7.916.879,7.916 1.539-8.355 5.278-7.036c0,0 1.54,7.915 16.711,18.25 0,0-3.555.871-7.586,3.318-10.296-2.855-34.962-11.431-53.542-31.793-24.078-26.386-20.339-25.712-24.738-35.622-1.112-2.505-5.383-6.698-7.586-7.916s-22.099-8.246-80.478,10.225-89.714,49.804-93.012,52.113c-2.016,1.412.652,2.081 4.311,1.637h.013l.067-.01c.262-.033.527-.07.798-.115 .028-.005.058-.01.086-.015 .249-.042.5-.089.752-.141l.156-.032c.273-.058.548-.121.824-.191l.139-.036 .756-.212 .123-.037c.277-.084.552-.176.825-.273l.155-.057c.257-.095.513-.193.764-.299l.07-.028c.265-.113.525-.234.782-.359l.167-.083c.257-.13.51-.265.754-.408l62.008,24.077c0,0-2.309,3.628.66,3.958s8.576-4.618 8.576-4.618l62.667,35.622c0,0 0,3.301 2.968,3.301s4.948-3.961 4.948-3.961l.041-.01 .081-.019 .018-.004c.025-.006.062-.014.094-.023l.159-.037c.03-.008.061-.016.095-.023l.157-.039 .164-.039 .352-.082 .199-.049 .277-.066 .28-.064 .275-.064 .277-.066c.108-.023.221-.051.336-.078 .105-.025.21-.049.322-.074l.391-.09 .32-.076 .595-.137 .517-.117 .454-.104 .469-.105 .414-.094 .541-.121 .403-.092c.192-.041.385-.084.583-.129l.408-.092 2.31-.506 .466-.1c.248-.055.501-.109.756-.164l.411-.088 .809-.174 .439-.094 .817-.172c.152-.031.309-.064.463-.098l3.014-.625c.161-.033.321-.064.483-.098l.886-.182 .581-.117 .909-.184 .546-.109 .995-.195 .392-.078 3.664-.709 .51-.098 1.052-.199 .63-.117 1.03-.191 .646-.119c.358-.064.717-.131 1.079-.197 .178-.033.359-.064.539-.098l2.501-.447 .254-.043 1.156-.203c.217-.037.434-.074.652-.113l1.088-.186c.248-.043.497-.086.746-.127l1.081-.182 .763-.127 1.1-.182c.208-.035.417-.068.626-.102l2.268-.363 .689-.107c.366-.057.734-.115 1.102-.172l.81-.123 1.107-.166 .819-.123c.37-.057.74-.109 1.111-.164l.85-.123 1.093-.156 .828-.115 2.04-.279 .895-.119 1.059-.138 .922-.119 1.063-.135 .939-.115c.349-.043.698-.086 1.048-.127l.98-.115 1.014-.119c.477-.055.954-.105 1.431-.158l1.341-.145 1.071-.113 .988-.098c.34-.035.68-.068 1.019-.102l.987-.094 1.031-.094 .959-.086 1.121-.096 .863-.072 1.869-.143 .775-.053 1.201-.084 .87-.055 1.097-.066 .878-.049 1.114-.057 .831-.039 1.262-.053 .66-.027c4.369-.158 8.59-.168 12.575,0 .001.006.002.012.004.018 2.859,11.437 12.314,14.954 12.314,14.954s2.858,3.521 7.475,5.719 6.157,2.199 6.157,2.199 1.759,1.758 6.157,3.516l4.397,1.76c0,0-1.978-3.078-.439-4.617 0,0 11.653,6.158 21.988,6.158 10.336,0 14.732-4.619 14.732-4.619v1.318c0,0 7.477-3.076 12.313-7.475s7.697-7.697 8.797-9.897 1.098-3.078 1.098-3.078l.662,2.418 .037-.004 .037-.004 .158-.016 .029-.004 .213-.027 .08-.012 .322-.047 .074-.012 .332-.059 .107-.02 .445-.09 .113-.023 .432-.104 .104-.023c.176-.045.357-.094.543-.146l.119-.035c.178-.053.357-.109.541-.17l.055-.018c.199-.068.402-.143.605-.219 .037-.016.072-.029.109-.043l.195-.078c.01-.002.014-.01.02-.014 1.266-.525 2.539-1.273 3.461-2.352 .293-.342.588-.727.881-1.141 4.617-.545 10.063-1.088 16.057-1.503 2.313-.162 4.705-.305 7.164-.42l.033-.002c1.199-.057 2.414-.105 3.639-.148 .068-.002.137-.004.205-.008 1.213-.039 2.438-.074 3.674-.102l.176-.004c1.238-.027 2.488-.043 3.746-.055h.104c1.254-.01 2.52-.008 3.791,0l.277.002c1.256.01 2.521.029 3.791.059 .086.002.174.004.26.008 1.303.029 2.609.072 3.92.125 9.959.406 18.314,1.878 25.117,3.718l22.709,10.138c0,0 1.648,4.947 4.947,4.947s2.969-6.27 2.969-6.27l73.553-26.715c.234.146.459.281.678.406l.189.104c.15.084.301.166.443.24l.211.105 .377.179 .207.091c.117.049.23.096.342.139l.191.071 .32.106c.057.017.113.035.166.05 .109.031.215.055.318.077l.129.029c.137.026.268.047.393.059l.014.002c.131.013.254.017.373.016l.104-.006c.078-.003.156-.008.23-.018l.117-.021c.064-.011.125-.023.186-.04l.113-.034 .156-.058 .107-.047c.047-.023.092-.049.135-.075l.096-.06 .121-.092c.027-.022.055-.044.082-.068 .039-.036.076-.075.111-.115 1.113-1.198.686-3.679.686-3.679l54.422-29.685c.416.132.797.242 1.15.334l.1.027 .037.009c.557.141 1.037.234 1.447.286l.012.001c.188.023.355.035.514.041 3.048.126 1.098-2.673-1.28-3.994z" fill="#333"/>
 </g>
</svg>
