<?xml version='1.0' encoding='utf-8'?>
<svg xmlns="http://www.w3.org/2000/svg" version="1.1" id="Layer_1" x="0px" y="0px" viewBox="0 0 4516.083 5000" enable-background="new 0 0 4516.083 5000"> <g> <path d="M122.157,744.2891c13.2417-0.1359,26.5318,0.1157,39.7286,1.122c65.0185,4.955,75.4376,9.3901,78.6218,40.0942 c5.2704,50.8303,2.6127,119.8436,5.2623,198.6253c1.9738,58.6837,2.5799,58.6627,62.8894,67.5999 c2.1847,0.3236,4.4829,0.3381,6.5298,1.0597c9.9255,3.5035,14.608,10.9628,9.108,20.0431 c-17.1331,28.2894-35.506,55.8232-53.085,83.8474c-23.9587,38.1932-26.1154,78.7421-11.7304,120.65 c5.0093,14.594,9.7578,29.5189,16.8971,43.0986c37.3807,71.1097,29.3948,141.2844-6.2151,209.3212 c-13.9771,26.7054-19.1624,53.2484-18.8363,82.4406c1.0803,96.7374,0.252,105.8325,3.7854,695.6134 c0.6759,112.8625-3.5852,76.3792-168.0931,91.0938c-23.4309,2.0967-42.3688,14.0188-51.6967,36.26 c-24.1286,57.53-25.4266,115.9492-1.2781,173.6865c9.1827,21.9546,27.0507,33.4351,52.4801,32.7595 c33.0998-0.8826,66.2578-0.4741,99.3715,0.2556c62.4924,1.3777,66.2871,5.0955,67.4303,69.0259 c1.1454,64.0325,1.4676,128.0811,1.8947,192.1248c0.1519,22.7781,5.9942,41.2073,22.9365,59.2063 c47.5996,50.5701,54.5334,108.0808,21.3437,170.3318c-15.5595,29.1851-26.4661,60.4456-37.4618,91.7969 c-23.6204,67.3489-0.6283,120.8601,44.4826,169.0066c25.3795,27.0935,49.9811,34.21,45.5562,54.6763 c-14.639,10.2507-33.0429,5.2063-49.8448,8.2949c-45.0314,8.2817-51.4411,30.7654-51.541,77.4866 c-0.4354,203.1682-0.5604,406.3398-1.5768,609.5051c-0.3903,78.0122,64.5802,39.0757,86.328,130.9429 c4.2255,17.8481-3.509,30.4355-21.8958,33.3589c-27.4143,4.3608-202.3112,3.998-231.4049,8.3403 c-29.2737,4.373-48.6122,22.6147-55.8134,49.8306c-9.7055,36.6743-10.4337,74.5439,1.3445,111.252 c7.857,24.4849,23.1498,42.6748,50.7668,46.1255c26.2335,3.2778,52.5657,9.2041,78.7605,8.7334 c95.4834-1.7119,92.899,5.1333,93.841,97.8945c1.0767,106.0034,1.3515,212.0181,1.1232,318.0264 c-0.0522,24.1953,0.4095,40.7944,8.43,52.1807h3951.8677c48.0225-3.2607,45.3364-20.3198,45.6177-100.4258 c1.1323-323.8413,0.8931-315.4468,2.1641-331.249c4.1929-52.1689,20.9961-44.2549,158.1016-43.2607 c38.3994,0.2798,62.4053-20.2637,73.915-54.9624c13.5771-40.9375,13.4102-82.7109-1.2773-123.4814 c-9.791-27.1802-28.4883-44.1987-59.4131-43.812c-75.416,0.9395-177.356-1.022-218.5522-2.8315 c-24.458-1.0728-34.3589-15.8633-33.269-40.2852c1.6016-35.9072,18.8203-64.3091,47.0498-83.5713 c27.3618-18.6719,35.7607-42.5957,33.79-73.2368c-0.9219-14.3325-0.771-617.7192-4.4775-642.5112 c-6.7163-44.9353-43.084-32.4946-107.208-32.3298c-9.3071,0.0242-14.7891-12.0938-8.9688-19.1348 c25.272-30.5698,51.7324-60.2092,75.8789-91.635c45.8374-59.6602,46.9248-132.7351,3.0981-196.415 c-30.8369-44.8071-30.0029-77.5352,6.6089-113.0752c30.6763-29.7778,36.0586-62.1694,35.2222-101.1255 c-1.6108-75.0559-1.1836-150.1836-0.0332-225.2581c0.6899-45.011,9.165-52.7129,55.6064-54.656 c37.4966-1.5693,75.0801-1.863,112.6133-1.511c25.4214,0.2378,41.0024-12.2976,52.1528-33.6106 c21.5669-41.2236,24.4849-84.8408,13.7705-128.8374c-8.606-35.3376-31.6528-57.3206-70.0947-59.6721 c-37.4614-2.2903-74.9229-4.6572-112.3374-7.5879c-49.9326-3.9097-52.2363-6.2588-54.5493-53.7979 c-2.021-41.5308,1.3447-764.1732,1.771-801.6052c0.2603-22.8995-2.7822-43.6577-21.2168-60.0039 c-45.6206-40.4484-33.0581-111.0634-9.2271-166.8413c8.6729-20.2996,18.6338-40.265,24.9888-61.2965 c38.7593-128.2644-34.7241-175.6118-62.8496-206.7164c-9.856-10.9012-32.4341-15.7266-27.7651-32.9861 c5.3105-19.6329,26.1606-8.5707,40.3745-10.1004c6.5571-0.7046,13.2637,0.0639,19.8472-0.4943 c45.7231-3.8728,35.9072-13.6197,35.5479-155.6545c-0.1987-78.4327-6.1523-104.0019,33.3892-106.6837 c49.4443-3.3561,130.5913,0.2811,138.75-0.1828c39.7813-2.2618,66.2383-22.512,76.1616-61.5692 c9.3525-36.814,11.959-74.2784,2.5386-111.4549c-11.1616-44.0475-34.3374-61.2755-80.2881-62.3255 c-44.1489-1.0079-88.3286-1.4973-132.4248-3.6532c-32.7524-1.6001-38.9258-7.3978-39.5645-39.3161 c-1.0591-52.9556-0.9287-105.9702,0.2744-158.9242c0.6465-28.4682-2.2646-52.0868-34.1797-63.4694 c-11.5654-4.1248-21.9517-14.9007-29.9722-24.9574c-19.8789-24.925-15.7524-56.0668,8.936-76.0201 c6.8018-5.4976,14.8789-9.5212,22.6602-13.68c20.2554-10.8258,19.999-28.2631,20.1851-52.0099 c0.6143-79.4518-15.0913-63.346-198.875-63.0447c-903.0569,1.4747-1116.6719,3.4495-3305.9873-0.3349 C294.8566,7.6294,459.4228-7.914,277.557,5.3117c-44.9058,3.2637-38.1356,43.8667-38.8179,71.0791 c-0.9135,36.4435,27.8281,37.2755,44.9857,50.1154c36.8773,27.5889,43.3867,74.3731,15.5497,111.0415 c-5.2874,6.965-11.2151,14.3635-18.5413,18.6978c-30.7439,18.1817-37.2773,47.3577-38.189,79.4661 c-1.378,48.5323-4.2227,97.0023,0.9188,145.5961c2.1129,19.9687-11.4325,34.5045-31.4111,34.9405 c-72.1566,1.5764-102.0167-9.2136-151.0714,7.3694c-35.2441,11.9141-54.7316,36.9879-59.6637,72.3846 C-7.8179,661.5613,30.3776,745.2323,122.157,744.2891z M134.987,2564.4436c-25.8159-0.5793-37.478-14.637-36.2862-43.7385 c0.8186-19.988,11.9519-28.9302,35.672-28.6511c25.5681,0.3003,36.1458,10.7849,36.2362,35.9163 C170.6994,2553.1379,159.1281,2564.9856,134.987,2564.4436z M129.9287,4461.9658c-23.9009-0.0747-34.0895-11.0908-34.2165-36.9995 c-0.1286-26.2129,12.9042-37.6045,41.9382-36.6563c20.721,0.6777,30.1111,10.9629,30.6454,33.563 C168.9737,4450.5449,157.9625,4462.0532,129.9287,4461.9658z M4383.9863,4375.9849c23.7397,0.4727,32.6011,11.1587,32.3042,38.9521 c-0.2749,25.6597-9.9795,35.105-36.2046,35.2373c-29.1572,0.1475-39.7764-10.333-39.7944-39.2739 C4340.2759,4385.1196,4352.4888,4375.3589,4383.9863,4375.9849z M4379.144,2470.512c29.5933,0.571,42.3574,15.415,39.9927,46.5132 c-1.8042,23.7222-16.0791,33.7417-46.8438,32.8794c-28.3281-0.7937-40.7993-15.458-40.2695-47.3513 C4332.3999,2479.9158,4347.1362,2469.8955,4379.144,2470.512z M4368.957,561.1428c31.3994-0.2906,43.5396,10.5225,41.6611,51.5828 c-1.5142,33.1164-20.7808,47.1749-52.8916,38.5953c-11.5703-3.091-19.7549-10.4006-22.0947-22.0372 c-2.1563-10.7233-2.9937-21.8542-3.104-32.8187C4332.269,570.7287,4342.2529,561.3895,4368.957,561.1428z M307.7679,948.9774 c7.3826-41.1038,14.7003-82.2375,23.3486-123.0841c2.8661-13.536,12.1755-23.2182,27.801-23.6882 c8.812-0.2645,17.631-1.1479,26.4272-0.9376c39.2827,0.9399,72.7081-12.5192,102.9489-37.5494 c38.8325-32.1407,26.5749,1.8907,129.1109,75.7814c14.3015,10.3075,14.224,23.1308,0.3778,31.8463 c-20.4609,12.8807-41.2202,25.6693-63.073,35.8846c-72.9038,34.0842-169.5666,58.4567-225.7557,63.8132 C315.4884,970.8551,305.7469,960.2297,307.7679,948.9774z M324.5679,1568.705c0.1424-47.1312,24.3214-88.8232,31.1369-134.5906 c1.8907-12.6947,16.2093-12.9301,26.9613-14.7485c12.305-2.0798,22.3777-7.8071,16.4176-21.4143 c-14.5479-33.2119,17.3414-31.9092,50.4645-74.9304c10.2614-13.328,26.7156-29.3855,14.4563-46.7413 c-8.9857-12.7213-23.5444,4.4249-36.1434,4.6774c-2.1924,0.0437-4.3759,0.4562-6.567,0.6633 c-117.818,11.1566-105.1665-127.2539,21.6286-208.5356c37.0355-23.7407,75.765-44.8671,114.0273-66.6534 c14.6728-8.3547,27.3214-2.9235,28.9924,13.0789c4.538,43.4502,3.4207,42.0176,3.4207,502.1976 c0.3409,105.7405,4.2629,211.4761-2.618,317.2246c-3.8309,58.873,10.5435,136.7065-1.1996,171.2072 c-3.0089,8.8385-13.4739,13.0491-20.8378,7.7416c-15.2427-10.9921-73.2088-86.9998-202.2213-118.9489 c-27.4912-6.808-39.1114-23.6486-38.7514-52.5648C324.8873,1753.825,324.2882,1661.2605,324.5679,1568.705z M323.7519,2019.9587 c0.8071-56.0005,11.2762-62.2957,63.1525-44.5459c120.0474,41.0769,205.0902,126.3462,203.3115,254.2327 c-0.4601,33.0735-0.8613,66.1614-2.2193,99.2051c-3.5878,87.2983-39.8127,156.7239-113.2382,205.9048 c-36.7452,24.6145-73.7296,48.5227-117.8942,57.574c-19.1193,3.9192-29.849-3.9915-31.4487-23.3315 C322.8599,2538.0964,323.1082,2064.605,323.7519,2019.9587z M345.8101,3260.3318c2.8851-49.1194,50.0319-79.8389,108.5402-53.063 c24.9537,11.427,37.4306-4.1401,35.0028-29.219c-5.3141-54.8833-58.3152-48.9287-58.602-98.6404 c-0.1143-19.73-6.9755-34.0903-29.4905-36.5317c-8.8142-0.9546-15.9507-6.1462-21.0846-14.2195 c-15.3506-24.1453-31.2107-47.9636-46.8649-71.9138c-13.8373-21.1699-7.6762-28.7607-10.0771-249.8943 c-0.47-43.282,33.5888-47.1233,54.5241-55.4019c179.8708-71.0933,168.5528-122.9717,194.7206-118.9417 c9.8112,1.5112,12.3104,11.3616,12.7919,20.1038c1.5762,28.6243,3.4854,57.2803,3.5695,85.9287 c1.2146,413.5168-2.8135,383.9744,4.4247,383.9744c0,421.0203,0.636,412.7893-1.8895,450.0791 c-0.8474,12.5142-13.8759,20.2542-23.1506,13.8247c-166.9551-115.7515-171.6165-117.6545-198.764-151.9656 C352.6232,3313.1685,344.1928,3287.8616,345.8101,3260.3318z M321.1657,3528.2039c21.7849-4.2988,43.7068-5.6367,65.8159-2.3054 c81.4149,12.2683,157.9476,39.3645,230.8773,76.8831c19.3484,9.9534,21.6915,23.9187,5.2927,34.9543 c-46.58,31.3416-79.5774,75.1294-115.0508,125.9324c-11.929-11.063-19.0087-16.3713-24.5424-22.9753 c-24.6344-29.4019-57.2419-39.6526-94.0327-40.0134c-26.247-0.2585-52.2878,8.3167-56.2237-17.2417 c-6.4086-41.6135-18.446-81.6221-32.2419-121.3069C294.7531,3543.9878,303.0556,3531.7744,321.1657,3528.2039z M682.0141,2275.2178 c19.9019-1.3135,146.9639-0.5232,178.7491,1.1875c42.5878,2.2927,48.9429,9.72,48.9718,88.2554 c0.2586,713.3281-1.409,662.425,3.1401,662.425c0,207.5608,0.7186,415.1262-0.8348,622.6758 c-0.2139,28.583,14.1133,61.7722-14.822,86.1926c-28.8602-9.824-44.9924-34.5791-63.1058-56.0676 c-35.5559-42.1814-70.5844-84.7559-83.1353-141.2148c-4.9551-22.293-21.4959-26.1692-40.1039-12.8379 c-7.0986,5.085-12.2647,12.8701-19.3678,17.947c-14.7106,10.5146-37.6664,3.5625-43.2259-13.8813 c-10.5663-33.1616-8.6993,10.9976-5.7139-1145.0532C642.7721,2304.886,637.4272,2278.1614,682.0141,2275.2178z M650.0129,942.793 c7.3965-21.1683,32.8154-29.1356,53.4039-17.7457c5.7413,3.1743,10.4032,8.4316,16.2822,11.2014 c17.2876,8.1452,36.9357-1.8638,40.073-20.8067c3.759-22.6967-4.132-47.3149,17.9019-68.4492 c28.6403-27.4716,57.3248-54.9424,87.0457-81.2216c14.5985-12.9083,30.3973-5.538,32.0493,14.5132 c7.0427,85.4739-2.4367,701.6844,4.8504,701.6844c1.9239,205.2181,3.855,410.4371,5.7546,615.6554 c1.0876,117.5166-0.7502,119.8586-77.9485,120.5068c-48.5258,0.4077-97.1301-0.0762-145.5822-2.5005 c-28.9182-1.4473-37.934-12.5095-40.1519-42.051c-1.4149-18.842-1.268,54.6853,0.1689-1118.848 C643.9139,1010.6934,643.2734,962.081,650.0129,942.793z M682.7064,3670.1677c3.4999-15.7612,15.9739-19.3481,30.3917-9.9807 c54.566,35.4487,129.1334,123.5906,170.5901,173.3945c8.2876,9.9548,16.4249,20.8625,14.4602,36.6821 c-5.1786,2.8022-10.4317,7.4407-16.3509,8.5603c-45.7778,8.6621-88.524,25.2632-130.0099,46.1677 c-23.1249,11.6521-29.4338,10.1748-41.9647-13.5625c-16.235-30.7527-36.6721-54.1375-72.2462-61.9082 c-12.7428-2.7813-18.0209-13.7292-11.9474-25.3425C651.2396,3775.2151,670.7106,3724.1921,682.7064,3670.1677z M336.46,4026.0007 c-7.5262,8.0085-17.6179,14.8733-29.17,7.8936c-11.019-6.6582-9.2156-21.7151-9.2156-52.9272 c5.2043-91.0376,56.8684-170.165,66.7862-180.8657c10.5973-11.4353,21.5222-23.2927,39.3996-17.2532 c14.4539,4.8828,17.9778,17.9392,20.8144,31.1716C440.532,3886.1296,387.1072,3972.1125,336.46,4026.0007z M431.1107,4113.1753 c14.0301-76.8606,103.7123-160.801,181.4997-169.9275c24.2288-2.8425,37.9473,38.3318-2.2054,91.0237 c-39.6406,52.0195-93.3285,85.0063-154.526,106.1567C441.9106,4145.2588,427.1058,4135.103,431.1107,4113.1753z M733.0723,4197.8423c-51.796,41.5874-112.5226,57.2563-179.0797,58.5283c-17.5352-2.1182-42.7603,4.1172-50.2115-17.8354 c-5.9799-17.6172,13.4447-31.2251,26.0371-42.6782c48.5187-44.1343,106.3771-69.1431,171.1392-77.2197 c30.8606-3.8491,60.6385,8.625,62.5917,24.6274C766.5889,4168.1636,750.1537,4184.126,733.0723,4197.8423z M1045.025,4250.4927 c-21.3503,0.2939-43.9604-18.3281-68.1857-22.1763c-52.7744-8.395-86.9029-31.7168-94.571-89.6191 c-4.0822-30.8223-29.3263-53.1455-51.9529-74.2769c-10.2826-9.6035-8.7537-20.7493-0.9276-29.0166 c31.6841-33.4722,62.933-67.0544,85.987-107.4868c5.8185-10.2056,19.4443-8.1704,26.5063,3.2244 c99.792,161.0154,33.2128,186.0725,100.245,288.0291c4.6779,7.1138,8.3788,14.8716,12.2366,21.8042 C1050.3282,4245.291,1047.712,4250.457,1045.025,4250.4927z M1030.3182,3934.835c-15.8538-23.8687-30.6584-48.4329-46.0992-72.5796 c-13.5667-21.217-9.8763-30.9807-11.7585-190.1348c-10.9907-928.9629-13.1268-983.4417-11.7092-1323.7859 c0.294-70.571,5.6921-76.0979,75.0983-75.3657c48.4893,0.5112,96.9744,4.0891,145.3955,7.2949 c26.4901,1.7546,34.6471,9.6094,35.7377,37.5129c5.3765,137.5381,2.1862,761.2573,1.6383,761.2573 c0,747.2864,0.9299,684.186-3.3439,767.8481c-0.7297,14.281-7.9075,26.5088-23.071,28.1316 c-50.6636,5.4165-90.8865,30.8269-128.2832,63.0422C1050.5515,3949.5754,1039.1429,3948.1194,1030.3182,3934.835z M1083.9642,4138.9692c-18.8763-63.0303-0.1482-119.7434,58.275-151.406c9.2362-5.0056,20.3733-8.5068,30.7703-8.8757 c13.9269-0.4917,14.9958,13.1323,19.2523,22.9463c11.0426,25.4575,32.3762,34.3718,58.3893,34.3315 c8.701-0.0129,17.8527-0.5776,26.0212-3.2551c37.8546-12.4207,53.9668,12.2004,48.197,46.7356 c-8.2899,49.6235-29.5188,92.1934-82.9099,108.4736c-18.8528,5.7485-37.7296,12.4302-57.0968,15.2827 C1135.9799,4210.4019,1098.0309,4185.9424,1083.9642,4138.9692z M1492.0952,606.2711 c12.0944-0.2904,22.0848,1.8274,28.9526,11.4182c22.0105,30.7365,40.8243,62.1573,40.0522,102.656 c-1.7882,93.8311,1.2639,541.4409,3.1726,1397.9238c0.2185,97.99,8.2023,97.6196-97.3081,101.4395 c-46.2826,1.6753-92.7468,0.7312-139.0391-1.1892c-35.8121-1.4846-39.3198-18.0103-38.9961-83.4033 c1.0405-209.7748-9.1388-419.5199-0.9756-629.3352c2.2302-57.3198,0.3386-114.8007,0.3386-172.207l-3.8016,0.0024 c0-851.3195-0.4672-801.8725,1.4717-828.141c4.709-63.8075,38.7441-101.1967,101.3552-110.3919 c7.7399-1.1366,17.9956,1.9277,24.3887,6.6762c38.516,28.6073,55.1085,67.8732,51.2572,115.3466 c-1.0593,13.0563-4.8977,26.0479-8.7155,38.6899C1438.7197,607.1755,1438.5507,607.5557,1492.0952,606.2711z M1436.0377,4306.6152 c-63.8641,2.1436-127.8157,6.0576-191.5422-2.3071c-10.5579-1.3813-17.1378-15.458-2.1193-22.2686 c91.4705-41.4609,160.1014-107.7798,211.484-193.1519c6.5298-10.8491,14.0546-21.3892,28.3048-22.4602 c-2.3245,34.3508-15.5344,116.739-17.95,209.178C1463.767,4292.7422,1454.3578,4306.0005,1436.0377,4306.6152z M1479.9509,3787.5596c-5.3409-9.0828-14.4585-16.5315-23.1938-22.8721c-9.2228-6.6931-21.4119-9.3513-31.3169-3.2454 c-13.9768,8.6152-4.5466,18.8079,1.757,27.1577c24.9142,33.0095,20.9856,70.8743,18.145,108.2473 c-3.0886,40.6313-22.3995,75.8511-41.0411,110.8069c-9.7178,18.2222-26.5907,20.8577-45.2366,9.7979 c-19.2693-11.4319-34.1742-25.281-41.9805-48.4409c-16.3967-48.6497-25.1798-97.7424-25.0494-149.1877 c1.4899-588.2219-1.9299-653.9324-1.6436-1456.6323c0.0299-83.5813,0.196-83.7585,84.2878-83.3225 c50.757,0.2629,101.5365,0.3909,152.2537,2.1169c39.3137,1.3379,37.5033,14.5767,37.6274,102.5801 c2.2206,1567.021,6.4084,1468.3621-10.3281,1501.2236c-4.8646,9.5503-7.3545,22.8831-20.3185,23.2131 c-15.8792,0.4063-14.6932-14.5625-15.0524-24.3586C1517.4979,3847.4209,1497.7419,3817.8154,1479.9509,3787.5596z M1728.8785,4093.7156c-35.0654,37.4568-32.792,78.6902-14.0387,119.0852c-9.3413,13.5757-20.7615,14.9106-31.4216,16.3232 c-46.1925,6.1172-91.0372,15.9858-132.5443,38.6348c-14.4279,7.8726-26.4976,0.5239-29.0122-14.6646 c-0.7184-4.3408-1.8646-8.7495-1.6907-13.0806c3.5691-88.833,19.7871-175.0723,54.3583-257.3057 c7.9009-18.7949,21.7467-21.4224,35.0105-5.7434c30.5286,36.0916,68.7659,61.4114,109.3743,84.2493 C1734.1403,4069.7791,1738.7528,4083.1685,1728.8785,4093.7156z M1632.9711,781.3692 c26.4977,4.069,38.3135,28.0346,57.2123,42.3884c8.7649,6.6559,16.2435,15.0228,25.0868,21.5558 c38.0804,28.1325,60.4901,62.5399,53.5988,112.9077c-2.7407,20.035,19.3004,29.0466,37.1327,16.6334 c7.1001-4.9426,12.4274-12.3525,19.1238-17.969c23.7322-19.9064,53.1589-9.789,58.3196,20.5843 c3.8854,22.8652-1.8662,1182.5463-3.6653,1204.4069c-1.6125,19.5981-10.2181,30.917-27.3604,31.6086 c-66.0321,2.6638-132.1401,9.4954-198.1978,1.4763c-43.4186-5.2727-40.7184-19.1489-40.8304-149.4961 c-0.1642-191.9402-0.0776-383.8813-0.0776-575.8215c0.5978-0.0009,1.196-0.0024,1.7938-0.0033 C1615.1073,762.0623,1609.9718,800.0094,1632.9711,781.3692z M1617.5442,2307.2866c1.6952-14.4937,11.8146-24.1443,26.9058-24.1711 c66.1304-0.1147,132.2899-0.5015,198.3787,1.3582c42.2933,1.189,39.0704,33.5942,38.8165,90.3733 c-4.7198,1054.3574,0.7037,1063.5735-27.051,1094.3318c-10.7063,11.864-14.6062,26.5818-18.189,41.8757 c-3.2794,13.9961,7.5657,34.2505-11.2656,40.9888c-13.4183,4.802-21.0057-13.7065-33.1613-18.3176 c-9.4626-3.5901-19.6738-2.0854-19.8534,8.8127c-0.9955,60.3938-34.3577,102.7708-75.3184,141.7278 c-17.5314,16.6738-33.4172,35.0659-50.5575,52.1685c-6.1726,6.1592-19.8574,1.3103-20.6187-7.2046 C1616.7159,3629.6152,1604.7234,2416.9111,1617.5442,2307.2866z M1766.1678,3957.9333 c-106.486-50.115-172.512-20.2185-145.6022-71.9697c44.7524-86.0647,104.8409-160.1479,183.0758-223.0034 c14.6786-11.7944,32.3479-6.1689,35.6294,12.0581c9.1996,51.0894,34.1881,94.8674,64.3624,143.5447 c-14.239,8.4922-23.2728,14.4766-32.8231,19.4744c-41.5662,21.7507-69.8531,51.8562-72.3467,102.1543 C1797.4454,3960.7258,1785.2037,3966.8933,1766.1678,3957.9333z M2729.6548,2281.9426 c48.5222-0.3591,97.0833-0.4021,145.5698,1.1609c30.3838,0.9795,39.3896,9.6755,40.0317,40.5835 c1.0723,51.6418,4.1194,655.147-1.156,655.147c0,666.9023,0.2866,633.2285,0.1768,635.2678 c-0.8142,15.1143,2.707,33.3979-12.4155,42.1167c-20.7637,11.9722-30.3672-10.5-44.0686-19.2722 c-9.2273-5.9084-16.8367-14.2939-25.8809-20.5422c-39.854-27.5266-70.188-60.3242-68.8423-113.1997 c0.2725-10.72-9.1311-15.344-18.7549-11.0549c-9.8613,4.3943-18.4209,11.6423-27.7537,17.3049 c-26.7773,16.2466-52.0437,7.0669-62.0205-22.3511c-7.9414-23.4155-8.0027-47.6902-7.9971-71.9939 c0.0886-379.6501-2.7048-343.5208,7.3311-1058.6829C2654.8701,2285.4744,2658.2939,2282.4707,2729.6548,2281.9426z M2654.394,2131.7881c0.1182-1188.1177-0.0972-1123.3264,1.0867-1138.1815c3.0681-38.4934,8.9048-42.9984,48.543-39.2821 c30.2458,2.8361,38.033-0.0744,42.3203-26.9991c11.0576-69.4456,93.5688-138.6346,135.7854-182.4862 c8.2788-8.5982,24.4426-3.5326,25.8958,8.0482c2.7278,21.7305,4.9082,43.6981,4.9431,65.571 c0.1399,88.0605,3.9597,1221.6843,2.9558,1316.8721c-0.8066,76.3962-2.4326,79.5632-76.1506,81.0161 c-50.6235,0.9983-101.395-1.5991-151.9856-4.5527C2653.572,2209.7966,2654.3875,2191.2708,2654.394,2131.7881z M2645.6846,3600.9712c-25.4536,30.395-50.5623,61.0798-76.1794,91.3357c-47.1477,55.6809-82.6108-53.1416-196.8801-18.7883 c-19.1799,5.7676-29.5835-2.1501-31.322-22.3884c-3.8049-44.2795-14.29-86.7651-27.9749-128.8687 c-12.5554-38.6257,16.9927-34.3606,56.6218-34.3606c87.1179,8.5764,182.1128,34.5386,270.9514,81.4795 C2655.8403,3577.2742,2656.5247,3588.0249,2645.6846,3600.9712z M2122.0073,3047.6311 c3.3096,5.6755,7.3523,10.9741,10.1987,16.8616c19.7424,40.8486-41.2673,22.9087-72.6396,69.2856 c-13.9675,20.6458-22.3154,42.7053-19.546,68.3342c1.7571,16.2612,12.0775,23.6096,27.1757,17.1753 c8.0671-3.4395,15.2297-9.136,23.4146-12.1372c53.2537-19.5212,99.7993,19.2593,89.2568,75.1438 c-2.7966,14.823-8.6011,30.1572-16.908,42.6829c-45.1821,68.1223-104.4641,118.6406-184.7242,140.9836 c-22.8071,6.3484-34.5182-1.4836-36.566-24.0579c-6.2668-69.0583,2.2007-469.4731-4.3431-469.48 c0-495.3362-3.4987-478.6272,10.2197-486.0098c17.3433-9.3311,27.1888,8.76,38.2462,18.1589 c56.3652,47.9167,118.4565,83.9624,192.5513,96.5881c10.7241,1.8284,20.9768,6.5266,31.3833,10.0842 c28.5264,9.7468,26.0342,28.998,26.4316,167.8945c0.3325,116.459,4.3708,82.7571-46.071,181.1978 c-12.3379,24.0789-28.2756,36.3699-53.8506,42.8867C2102.7107,3011.7676,2102.8196,3014.7363,2122.0073,3047.6311z M2053.2908,1374.4535c7.7397,4.1289,16.3301,6.6342,24.406,10.166c39.1782,17.13,39.1033,17.1228,14.8223,53.3689 c-2.3337,3.4841-3.3191,7.871-5.0483,12.1293c7.4431,12.647,19.7144,5.4554,29.6907,6.5209 c14.1895,1.5151,24.2366,6.6842,31.5703,19.908c21.3276,38.4546,39.4839,79.0237,72.7432,109.8126 c10.1021,9.3522,12.1523,23.5524,12.2478,36.8893c0.4116,57.3885,1.342,114.8096-0.1587,172.16 c-0.7651,29.2472-7.3909,37.0446-33.2034,41.2955c-87.6157,14.4283-163.1873,52.0997-228.3473,112.1627 c-14.9095,13.7439-29.479,6.495-30.8735-14.2826c-1.3282-19.7997-1.431-39.7092-1.4043-59.5687 c1.1656-861.0319-0.165-813.2505,6.1459-854.061c1.4852-9.6061,12.4144-15.4612,20.3594-10.5906 c67.9926,41.6879,132.8022,87.7278,176.978,156.0234c18.6992,28.9091,21.7295,62.1548,12.3215,95.818 c-9.9856,35.7292-32.2153,51.1047-69.1018,45.4923c-34.6738-5.2744-54.0812-26.4545-85.1658-50.7245 C1990.4636,1315.5369,2009.36,1351.0194,2053.2908,1374.4535z M2237.2427,1303.1747c4.5637-9.2915,20.7695-7.0588,27.3218,2.4673 c18.3845,26.7273,19.2253,57.5527,21.4338,86.5548c-1.1917,27.3271-5.1118,86.7668-31.5464,88.3208 c-9.3613,0.5493-16.0796-6.1981-20.4451-14.171C2203.9119,1411.3856,2210.834,1356.9473,2237.2427,1303.1747z M2250.9197,1888.5837 c200.3772,4.2938,328.7744,167.8267,325.1953,339.0603c-2.1167,162.7375-131.9651,329.3784-325.0151,322.3665 c-194.1006-7.0508-330.8643-170.7534-322.1978-349.8557C1936.9907,2032.9923,2067.5393,1884.6531,2250.9197,1888.5837z M2430.5798,1426.4319c-15.7102-23.3727-9.5959-39.1405,10.8872-55.9543c28.6814-23.5425,44.9119-54.0217,40.1362-92.9722 c-2.0066-16.3673-12.6331-23.2886-27.01-16.2054c-11.8235,5.8268-22.7964,14.0286-35.1675,17.9722 c-38.1438,12.1576-63.562,0.457-83.1614-33.8015c-14.3833-25.141-6.4697-47.8213,6.8523-68.4541 c24.231-37.5299,57.0171-67.1791,94.5908-91.2006c18.5776-11.8761,37.2954-24.0133,57.2871-33.084 c29.2588-13.2755,46.4873-40.3467,71.5862-58.1223c9.918-7.024,24.2751-2.3928,25.5828,9.0181 c2.0017,17.4674,3.5193,35.1007,3.5503,52.666c1.7471,979.6462,8.3848,943.8389-7.7456,956.92 c-24.1487,19.5851-46.9285-99.2523-224.8579-162.3225c-10.4026-3.6871-20.7229-7.7367-31.3516-10.6246 c-19.7297-5.3617-29.6064-18.3192-30.3394-38.1941c-5.2832-143.1693-1.8374-135.3656-3.3328-165.5227 c-3.5452-71.5144,31.5972-76.7323,41.5037-107.83c12.821-40.2432,32.9644-70.817,79.6851-76.3048 C2430.1968,1451.1328,2438.2268,1437.808,2430.5798,1426.4319z M2494.2822,3211.0449 c-7.4512-38.5266-24.679-69.5024-61.1941-89.3264c-23.3728-12.6873-22.4558-19.7849-13.9373-42.8801 c6.5354-17.7175,31.3645-32.0017,17.9673-52.9387c-18.0786-28.251-63.2974,15.2319-89.8687-37.564 c-53.7612-106.8193-50.6768-83.8154-47.408-340.5115c0.3533-27.741,12.5491-43.9546,41.3159-51.1121 c88.6423-22.0532,161.1658-70.0969,217.9543-141.8201c4.0198-5.0769,9.4973-9.0803,14.6172-13.1848 c6.4841-5.1982,19.4375,0.2031,20.2239,9.0188c5.5369,62.1355,1.9556,973.4021,1.939,973.7346 c-2.083,41.437-11.6677,46.4443-48.541,30.4856c-49.7102-21.5178-90.3501-54.7312-126.8442-93.7236 c-20.2385-21.6262-34.1033-46.1289-31.3577-77.27c2.7068-30.7073,21.0325-48.6169,51.2888-48.6138 c10.9563,0.0032,21.8967,3.2925,32.8728,3.4866C2486.8772,3239.0632,2497.0513,3225.3647,2494.2822,3211.0449z M2240.6753,3015.3706c1.7859-6.0251,6.1538-11.3899,9.8049-16.7322c6.0046-8.7786,20.885-8.468,27.9968,0.2759 c21.8579,26.8738,27.2432,58.5227,26.698,91.9011c0.4521,28.6575-2.5632,56.5205-18.3447,81.5508 c-5.9753,9.4792-21.6772,10.1555-26.8938,0.2896C2233.5491,3122.7458,2224.3328,3070.4949,2240.6753,3015.3706z M2257.9031,3353.083c5.385-9.3206,11.8633-18.1606,18.8523-26.3535c4.9097-5.7563,13.3462-4.8213,17.4875-0.3577 c10.2651,11.0632,19.2217,23.4011,28.1248,35.6484c11.1411,15.3196,37.4224,27.9229,30.4966,46.1726 c-9.8477,25.9475-38.0464,8.4033-50.3013,10.7881C2219.7817,3418.0959,2222.4202,3414.501,2257.9031,3353.083z M2622.1797,867.1985 c-106.8552,68.1732-216.1907,84.3546-268.6804,94.0497c-31.0813-0.1934-40.3105-10.0567-34.6406-28.5434 c34.635-112.9322,5.2795-139.0235,52.7095-145.1779c22.2605-2.8906,78.4934,8.9109,128.5183-40.0417 c10.9465-10.7112,23.6978-10.4256,34.4758,1.9415c27.5867,31.6506,56.4829,61.7714,91.2078,85.9975 C2638.6306,844.3961,2636.8943,857.8107,2622.1797,867.1985z M2339.2354,1033.7186c6.8804-0.0801,13.0996,2.3079,16.0005,8.9946 c7.0708,16.2948-16.198,12.8091-80.6506,108.8613c-4.583,6.8298-12.1458,11.66-20.8552,19.7527 c-33.259-40.6273-67.0505-77.6566-105.188-110.4105c-4.53-3.8901-9.7825-11.1472-3.988-17.2069 c3.9382-4.1183,10.9607-7.2723,16.6799-7.397C2220.5591,1035.0275,2279.8984,1034.4087,2339.2354,1033.7186z M2223.2012,968.2213 c-6.5278,0.7029-13.1133,0.8647-4.4553,0.3243c-99.6318-3.1332-224.4818-25.7083-305.6144-75.4255 c-7.7606-4.7557-11.6495-15.7112-4.1503-22.6633c34.0778-31.5883,61.6617-68.1903,87.1368-106.7241 c7.0083-10.6011,19.868-13.6161,28.6639-5.6011c44.8538,40.8749,96.24,48.3479,153.3999,35.1104 c16.4624-3.8125,23.9495,10.5543,26.6323,23.2093c8.697,41.0261,23.676,79.9086,37.3372,119.3024 C2248.812,954.9595,2241.6667,966.2336,2223.2012,968.2213z M2195.575,3490.2598c6.425-1.084,13.1365-0.741,19.7075-0.6375 c16.332,0.2573,24.5662,9.1814,22.916,24.5044c-3.04,28.1631-9.7822,7.2651-17.3628,123.5703 c-2.1292,32.6584-15.0903,31.1938-52.5454,29.2043c-50.9465-2.7764-94.374,13.7131-132.1492,48.2451 c-38.6555,35.3389-20.7881,2.9683-141.165-88.4883c-9.7983-7.4438-9.6313-20.7332-0.1622-27.7756 C1974.9684,3539.2747,2096.2517,3507.021,2195.575,3490.2598z M2091.8428,4247.6665 c-27.4009,8.6245-55.4901,12.5288-94.3928,11.1211c-85.4276-9.3828-142.1674-5.2319-197.2274-64.1006 c-13.8082-14.7646-9.4719-35.0962,9.0184-42.917c18.3173-7.7466,37.511-12.8203,57.4836-12.1167 c105.4667,3.7217,188.6118,40.8379,230.407,81.8359C2105.833,4230.0313,2103.0913,4244.123,2091.8428,4247.6665z M2107.8042,4130.3638c-12.7979-1.8057-26.0408-4.3521-37.7085-9.6167c-58.4253-26.3586-110.8948-61.4585-153.7317-109.7537 c-13.0956-14.7632-25.22-30.1184-28.8719-50.583c-3.37-18.8855,10.212-35.1726,36.2875-33.6907 c89.8909,28.249,157.3362,93.4607,203.5403,174.7358C2136.9316,4118.3623,2126.7,4133.0234,2107.8042,4130.3638z M2183.4958,4027.1802c-34.4392-34.833-59.2791-76.1826-77.6736-121.3296c-14.7529-36.2112-12.8389-73.2817-1.2832-109.76 c8.2747-26.1191,29.5605-32.6619,51.5925-16.7305c70.4417,50.9331,85.1846,137.1777,90.7366,223.1782 c-1.5337,18.1816,3.0999,40.5247-14.5718,48.7629C2210.6406,4061.3967,2196.8467,4040.6831,2183.4958,4027.1802z M2294.4534,4313.3506c-6.959-0.8496-26.6809-2.2119-45.9502-5.9248c-51.0417-9.8462-24.8589-108.5093,42.0991-116.1035 c43.6953-4.9526,82.8616,26.6367,87.0994,70.2529C2383.5527,4321.8062,2325.0806,4313.3506,2294.4534,4313.3506z M2384.2798,4041.7896c-10.9399,14.3862-29.7612,10.416-36.6243-5.9731c-0.8474-2.0239-2.2747-3.9167-2.6509-6.0105 c-14.3279-79.6724-13.6816-157.5925,28.0415-230.3857c4.3235-7.5425,10.0862-14.3894,15.8899-20.9304 c11.3225-12.762,26.1479-15.1467,42.1584-12.5515c31.1636,5.0476,29.9397,40.6555,32.991,68.4863 C2464.5247,3920.7561,2428.825,3983.2144,2384.2798,4041.7896z M2478.95,4118.312c-5.6646-7.8936-4.7402-16.6563-2.2952-25.187 c12.3523-43.0906,31.7678-82.4731,63.7224-114.4956c29.9175-29.9814,64.7563-59.6421,107.021-64.6506 c28.9792-1.0806,40.5466,11.2266,38.6121,28.876c-4.5063,41.1118-21.5603,76.1665-52.0542,104.2659 c-37.9524,34.9719-82.1951,59.2954-131.0112,75.3545C2494.8838,4125.125,2485.5125,4127.4565,2478.95,4118.312z M2756.8057,4225.2085c-51.3137,27.3403-105.0537,44.2944-152.6807,39.8774c-35.4158-1.1553-59.7256,2.0044-83.1792-6.0977 c-10.1567-3.5078-14.9971-18.4697-8.6467-27.0396c1.301-1.7573,2.0549-4.0869,3.6643-5.4282 c71.9924-59.9375,151.2993-96.9155,248.0645-78.396c6.4202,1.228,12.8059,3.105,18.9009,5.4702 C2803.1482,4161.4448,2815.8906,4193.7314,2756.8057,4225.2085z M2777.4753,3916.4299 c-11.3892-54.0354-43.8171-89.4136-94.9116-109.2473c-11.5969-4.5007-16.3059-17.0491-10.9607-27.5459 c21.1245-41.4873,31.4514-86.4966,45.4385-130.3459c5.1729-16.2161,17.9678-22.0615,30.3291-13.7666 c85.1167,57.1062,155.9941,127.9839,207.0593,217.5366c3.1536,5.5317,3.9404,12.4124,6.2297,19.9939 c-3.2893,4.7388-5.9421,11.0742-10.6731,14.6919c-16.0718,12.2991-77.9385,13.3572-143.2126,46.9331 C2789.6875,3943.4717,2778.4231,3920.9285,2777.4753,3916.4299z M3072.4465,4237.0156 c-1.4805,34.8462-11.4397,41.6089-46.592,29.8228c-39.5049-13.2456-78.0129-29.3193-119.6709-35.7666 c-14.8687-2.3008-21.4072-13.9302-18.6821-29.4438c1.1411-6.4927,2.3274-12.9785,4.0286-22.4497 c1.7153-38.0122-10.9448-74.4839-32.0039-109.2439c-13.0095-21.4758-10.5374-29.8967,12.041-41.929 c39.0491-20.8125,76.0823-43.4968,104.7698-78.2925c9.7297-11.8008,23.3865-7.9988,31.5652,6.9536 C3046.124,4026.5403,3075.4468,4166.4009,3072.4465,4237.0156z M3071.7322,3824.2642 c-4.3596,16.4863-2.8879,35.7002-21.3906,51.2659c-61.7319-74.9182-74.259-87.2761-74.6592-228.4688 c-0.1558-54.8777-3.2563-1231.4717-1.6348-1318.4072c0.6682-35.8313,7.7366-43.1343,43.0452-43.9692 c59.582-1.4075,119.2478-1.7537,178.8188-0.2273c53.0964,1.3589,49.2588,16.4014,49.9043,106.4832 c11.3105,1576.4487,11.8438,1457.3123,7.1465,1490.3069c-1.9968,14.0237-9.0947,24.4575-23.9885,28.156 c-14.9995,3.7227-29.792,8.2883-44.8181,11.8896c-20.6816,4.9604-34.6294-3.158-37.7397-24.5044 c-12.249-84.0657,7.8523-105.7017,39.7654-157.8806C3135.0232,3725.9014,3092.9524,3744.0142,3071.7322,3824.2642z M3304.6072,4296.939c-3.9014,7.7002-11.3794,6.8589-68.0608,11.8037c-96.1143,1.7217-99.8037-1.791-100.8052-82.1118 c-0.0547-4.3735-0.7009-8.8501,0.012-13.0986c2.3367-13.9136-8.1755-33.6323,10.9265-39.9775 c13.3835-4.4478,24.1829,10.1162,31.2493,19.8706c30.7754,42.4922,74.915,65.7783,120.0664,88.1938 C3303.9011,4284.5508,3307.9583,4290.3247,3304.6072,4296.939z M3407.2285,4151.7002 c-25.4392,28.957-58.4727,40.3047-95.4275,29.0747c-46.7251-14.2017-82.7119-43.0386-94.283-92.6006 c-9.5833-41.0488-10.0615-82.9746,5.9351-123.4231c4.0327-10.196,7.4475-21.7297,20.1733-23.7085 c14.9719-2.3264,15.926,11.2878,21.0657,20.3447c6.4419,11.3511,11.9573,24.1956,21.2131,32.8042 c31.1572,28.9714,62.9492,24.8101,95.1504-10.4871c15.6243-17.127,27.9333-17.2693,42.468-0.6553 c16.584,18.9551,25.8186,40.6687,25.3284,69.2405C3442.8047,4086.5627,3432.7874,4122.6074,3407.2285,4151.7002z M3459.8838,3893.8362c-33.0859-32.2717-73.4438-46.8584-121.2356-39.104c-23.6711,3.8408-30.7009-3.8215-32.0479-29.3823 c-2.9785-56.5369-7.9146-525.9509-8.3765-582.5266c-0.4507-55.1389,2.2285-110.302,3.478-165.4524 c1.0256-0.0032,2.0515-0.0081,3.0776-0.0112c-13.2593-631.5449-9.467-121.9968-11.3013-721.6929 c-0.1926-62.9758,3.9966-67.031,67.8772-68.7468c55.1328-1.4812,110.4097-1.4131,165.5073,0.8203 c48.9275,1.9834,51.1545,9.8123,52.1912,70.6567c9.0083,527.8623,11.9153,1384.5762,12.3003,1390.6877 c2.0535,32.6003-6.6157,60.604-28.3896,85.2961C3502.2578,3903.2224,3512.5215,3945.1755,3459.8838,3893.8362z M3671.5522,4116.0776c-24.8398,49.9487,3.6655,87.8882-41.8125,93.9033c-28.3777,3.7534-56.6245,8.5005-80.8835,12.2085 c-38.1689,0.0098-59.0872-18.8936-50.0703-48.1011c20.6975-67.0464,30.7271-137.9241,67.8149-199.3711 c4.4734-7.4116,9.4019-15.2695,16.0715-20.3643c4.1191-3.1453,12.7146-3.4219,17.8845-1.3865 c5.656,2.2261,9.9678,8.3418,14.3625,13.2148c13.2595,14.7017,26.5144,29.4177,39.3235,44.5078 c15.3508,18.0862,47.0527,23.3914,49.4026,49.4375C3705.6311,4082.1396,3681.302,4096.4707,3671.5522,4116.0776z M3886.7449,2919.4731c0,149.022,11.0276,32.6936,3.8279,569.5359c-0.1472,11.0129-0.2803,22.2039-2.2773,32.9675 c-2.6655,14.3684-18.365,26.9685-32.9045,28.8484c-14.1985,1.8364-17.416-10.0308-24.4292-18.0586 c-16.2217-18.5701-21.9375-17.6672-32.6553,3.7195c-5.9307,11.8364-12.2048,23.6404-16.6394,36.0608 c-21.1482,59.2385-68.3801,96.3318-113.8679,134.7969c-12.0925,10.2249-28.0374,4.4231-30.085-10.2786 c-1.8171-13.0432-2.521-26.3325-2.5618-39.5166c-0.8408-271.6643-6.3137-543.2979-1.9624-815.002 c3.0557-190.7854-14.1619-362.7708,1.1672-449.9287c9.2219-52.4336-19.7876-100.759,25.9187-102.6902 c44.0981-1.8638,88.282-2.2771,132.4282-2.1921c22.0405,0.043,44.106,2.1333,66.1045,3.959 c15.0581,1.2498,24.4509,10.03,25.9578,25.1128c1.7522,17.5417,3.6685,35.272,2.9712,52.8203 C3880.6465,2548.2178,3894.9805,2919.4919,3886.7449,2919.4731z M3920.729,3817.3413 c-9.552,7.5732-12.5176,11.3931-16.3523,12.7424c-46.8279,16.4927-76.5422,48.3875-91.4021,95.929 c-6.5259,20.8787-17.1548,25.7-34.4976,18.3191c-42.3914-18.0408-85.3318-34.0659-129.8667-46.1951 c-21.6655-5.8989-25.2944-19.1543-12.7004-40.5457c30.3359-51.5264,69.8794-95.4502,115.2798-133.9587 c33.5557-28.4622,89.6455-86.8972,103.9185-44.1438C3871.0933,3727.3696,3897.1548,3770.5232,3920.729,3817.3413z M3885.4353,2134.9778c-0.0239,75.2102-0.1282,75.1157-76.9458,79.0398c-50.8889,2.5991-101.573-0.657-152.1365-5.627 c-19.2598-1.8931-27.0962-10.3699-29.0657-29.8855c-2.5869-25.6306-2.9023,49.771-4.3423-1358.2057 c-0.021-21.2331-9.271-50.6987,11.1411-61.3637c26.4878-13.8378,41.0044,17.8767,59.2053,31.6311 c38.1929,28.8605,62.2976,67.1695,74.915,113.931c13.1943,48.8979,14.7083,48.4894,58.6365,26.6302 c28.5134-14.1871,53.0923-1.1228,56.1787,31.145C3885.9858,993.2704,3885.4353,2134.6265,3885.4353,2134.9778z M3882.9805,649.9441 c-19.2563,44.1754-39.9429,87.689-49.4519,135.562c-3.1565,15.8892-16.8818,20.8981-30.2778,12.6187 c-61.8755-38.2377-119.6704-81.7733-168.1765-136.371c-11.4893-12.9325-20.1147-28.6575-28.6125-43.9028 c-4.6758-8.3887-2.0718-19.0198,7.1704-22.0565c48.0669-15.7929,92.8784-38.5597,137.7144-61.4648 c8.4041-4.2939,19.0754-3.5731,22.9443,5.6439c21.0488,50.1494,61.6836,77.5158,109.7532,93.2149 C3883.6189,641.3362,3884.6086,646.2108,3882.9805,649.9441z M4012.5422,4258.9771 c-62.8987-8.0054-126.5525-14.0176-185.1426-42.2075c-17.8506-8.5874-35.3892-17.4941-48.6885-33.0771 c-18.2529-21.3872-9.7761-49.0703,17.719-56.3105c17.4072-4.585,35.1499-4.5254,52.2856-0.2295 c113.75,28.5254,184.5183,92.4727,188.4915,102.4551C4048.0806,4256.9272,4034.8772,4257.334,4012.5422,4258.9771z M4096.5039,4126.2124c-4.2371,0.9448-9.1125,2.3374-12.9775,1.1567c-86.2969-26.3359-154.1528-74.8076-190.2488-160.5698 c-5.5146-13.103-3.9785-25.9636,6.6912-36.5413c10.282-10.1926,22.3286-13.4998,36.2756-8.761 c46.4626,15.7573,89.3235,40.5725,118.1848,80.7339c19.4041,27.0007,37.8652,54.3298,50.5347,85.1199 c3.2539,7.9065,3.9819,16.8533,4.9229,21.073C4107.9155,4120.2939,4103.4326,4124.6621,4096.5039,4126.2124z M4223.1626,4002.3328 c-2.1182,11.115-16.9111,17.4602-25.603,10.7913c-51.4199-39.4414-79.0259-106.1287-91.7129-169.9824 c-2.5098-12.634-1.9224-26.2825-0.4849-39.2124c2.6929-24.218,29.999-35.032,49.7749-19.9663 c6.8516,5.2192,13.4814,11.6746,17.9209,18.9617C4209.7334,3863.1189,4236.2603,3933.6101,4223.1626,4002.3328z M4180.9438,3504.5261c24.2339-4.687,34.9551,5.0916,32.9258,31.7573c-4.7646,23.1211-9.9819,51.1785-16.5156,78.925 c-13.9736,59.3401-25.9814,41.0044-50.397,40.6978c-25.377-0.3203-47.1465,9.9387-66.6223,24.8975 c-10.3613,7.9568-20.4546,17.0896-28.126,27.5557c-37.4412,51.0823-50.8445-22.7732-140.385-70.114 c-13.9119-7.3533-13.4956-22.7117,0.2139-31.5759C3989.1575,3556.7959,4091.1155,3521.9021,4180.9438,3504.5261z M4193.8677,2911.3386c-20.2837,33.884-43.7197,65.8428-54.6313,104.7534c-1.353,4.823-10.0229,10.738-15.3535,10.7898 c-34.0063,0.3235-40.2029,16.918-32.949,47.1108c3.4829,14.4978-12.6653,21.7202-22.5449,30.0393 c-27.9751,23.5562-38.8564,52.4338-29.1382,88.4446c3.5488,13.1484,13.4397,17.9761,24.4751,10.293 c8.2153-5.718,43.7781-46.3987,82.2561-20.3562c23.3896,15.8308,37.4697,37.5898,34.0679,66.9495 c-2.0381,17.5894-7.4111,34.7356-18.5142,49.0037c-24.4106,31.3689-49.1255,62.531-84.7188,82.502 c-34.6245,19.426-69.2297,38.6787-97.6064,67.4526c-10.9551,11.1084-23.2959,4.7307-28.563-12.0498 c-7.4265-23.6584-6.5005-48.001-6.5459-72.1865c-1.6228-861.2715-4.0571-816.0093,9.7539-823.8228 c9.7505-5.5146,16.7083,1.012,22.814,7.3184c45.4766,46.9607,99.4102,79.8901,162.0703,98.5864 c6.3228,1.8862,12.2886,4.9531,18.5918,6.9236c26.4146,8.2634,39.7749,25.6394,39.7388,53.7693 C4197.0015,2759.2559,4201.8882,2897.9377,4193.8677,2911.3386z M4198.2622,2249.729c-0.8354-0.0007-1.6714-0.0007-2.5068-0.0017 c0,88.3176,1.0522,176.6521-0.3506,264.947c-1.0249,64.4548-11.2974,70.3049-70.3647,49.8752 c-181.4614-62.7603-264.3591-373.2876-72.9917-574.1536c29.4377-30.8982,65.4399-52.2979,106.6392-63.9871 c20.5806-5.8397,34.7671,3.7882,37.1528,25.3546C4198.9565,1979.9397,4198.2622,1988.2545,4198.2622,2249.729z M4170.0854,1172.1176c15.4829,47.853-26.7173,112.568-82.8574,91.0778c-22.3276-8.5463-30.5581-26.7377-46.5771-18.5321 c-10.3733,5.3115-11.2571,23.4132-3.8711,42.5017c9.3845,24.2504,28.7803,38.0201,48.7803,52.2592 c19.2324,13.6929,19.1855,17.4456,7.2747,37.6626c-2.2104,3.7518-6.1116,6.5087-8.3235,10.2605 c-9.8235,16.6602-7.0305,24.3217,10.3455,28.3088c4.2239,0.97,8.7991,0.3575,13.2063,0.5906 c39.9526,2.1119,18.75,41.0288,63.2808,77.7948c18.8906,15.5947,23.6748,36.3044,23.8281,59.1561 c0.5493,81.7102,1.1172,163.4203,1.6475,245.1305c0.1919,29.4696-9.9482,48.3729-41.6943,58.2727 c-149.2427,46.5405-177.5601,155.5731-203.6431,136.0903c-3.2324-2.4139-6.6267-6.267-7.3926-9.9945 c-1.7634-8.5876-2.6831-17.4957-2.6917-26.2751c-0.5654-590.5748-1.249-739.8645-0.0042-900.9407 c0.1914-24.7584-12.0349-58.5284,16.1155-71.778c23.7341-11.1707,42.4114,17.5435,63.3909,28.304 c35.5872,18.253,66.7795,42.8431,96.3149,69.6877C4144.3672,1106.3743,4159.1304,1138.2594,4170.0854,1172.1176z M4178.6626,936.3174c-10.7935,1.4838-18.418,1.0986-37.1514,1.0986c-33.626,0.9764-64.0701-4.7072-93.4417-14.0408 c-50.2646-15.9741-100.4858-32.6439-145.5637-61.0458c-13.824-8.7106-15.45-20.9362-4.5127-33.2102 c27.7988-31.1992,56.0115-62.0367,84.4443-92.6608c36.4939-39.3116,43.6965,58.314,152.6235,61.1833 c37.9736,0.999,38.6006,3.8028,46.8633,40.9105c5.2383,23.5248,11.3057,46.8651,16.7051,70.3559 C4202.0601,923.8372,4194.3809,934.1616,4178.6626,936.3174z M4177.7983,406.6678c7.6006-5.0041,17.0483-7.524,24.5884-1.9657 c4.4775,3.3029,6.2729,10.9263,8.0518,16.9667c4.1226,14.0122-20.6973,178.5915-89.4648,249.5375 c-11.606,11.9764-32.3289,8.0594-38.3291-7.0726c-3.9573-9.9799-7.7864-21.0283-7.5352-31.4985 c1.9106-79.6999,27.9985-150.334,82.1313-209.6641C4163.0684,416.5837,4170.5093,411.468,4177.7983,406.6678z M4073.144,315.5626 c12.043-4.8181,22.4285,2.8782,22.6345,15.0357c0.5916,15.5187-1.385,30.5569-8.3713,44.6551 c-33.416,67.4356-86.2563,114.778-153.2371,147.1331c-7.6558,3.6976-16.8557,4.454-25.4543,5.8882 c-14.9048,2.4875-26.238-9.1645-21.1311-23.8597c7.8555-22.6034,15.2708-46.1726,27.9019-66.1526 C3953.0457,378.8524,4008.8528,341.2852,4073.144,315.5626z M3732.0034,310.6685c14.9646-28.1608,37.0137-49.6584,64.9417-64.3552 c53.2961-28.0484,109.0068-48.1125,169.2415-45.9631c29.1301-1.6049,43.8982-4.4595,48.9104,10.6934 c2.8997,8.7649-1.0354,17.1972-6.7583,24.3297c-5.5186,6.8792-10.3953,14.5237-16.9006,20.3197 c-61.2546,54.5816-132.2273,87.1632-214.6692,92.2417c-10.6411,0.6552-21.7915-2.4236-32.2996-5.2727 C3730.9307,338.9927,3725.2339,323.4061,3732.0034,310.6685z M3441.1294,191.7423c4.8298,0.4546,11.6853-0.076,17.7559,1.8573 c52.4812,16.7119,104.9526,33.4812,157.1123,51.1606c13.1245,4.4492,23.5691,14.5294,20.7666,29.9389 c-8.7588,48.1642,8.1836,85.8754,42.7993,118.6779c36.2009,34.3008-20.5835,34.7866-93.3909,142.9493 c-8.5144,12.6494-23.6362,11.0897-32.4841-2.8516c-33.3716-52.5818-61.0818-108.5976-70.467-170.1175 c-8.4155-55.1575-16.6392-108.8468-50.0193-155.4757C3429.3433,202.4899,3432.2117,195.5726,3441.1294,191.7423z M3456.8281,485.926c7.896,14.3474,44.2341,92.6373,92.8279,152.3872c20.666,25.4104,29.0833,52.7056,28.6255,85.3083 c-0.0049,0.3347,0.4966,1420.1295-0.6665,1443.7235c-1.8638,37.7871-8.5251,45.8281-47.9707,47.3481 c-59.5232,2.2917-119.1833,3.5447-178.7197,2.2439c-51.0671-1.1147-57.3804-8.3586-58.2395-58.2734 c-1.5662-90.9436-1.3145-1504.1306-1.3145-1562.9167c0-62.0339-6.7556-83.2344,53.3677-93.5959 c21.6267-3.7276,39.6133-18.4341,57.8965-31.0996C3433.6885,449.5391,3437.7065,451.178,3456.8281,485.926z M3196.0027,257.9184 c41.8755-32.6431,124.8916-32.1068,167.3198,0.8089c33.5779,26.0501,41.7395,87.0083-0.646,135.38 c-18.989,21.6699-30.2217,20.9936-50.0024-2.7609c-23.8242-28.6138-41.5857-33.8978-74.0564-21.4434 c-6.0713,2.3289-11.4402,6.4246-17.3438,9.2664c-32.9619,15.8633-55.3655,5.5064-61.6362-28.5879 C3152.5837,312.2346,3165.8823,281.3987,3196.0027,257.9184z M3227.9963,524.9824c5.3123,20.9151,3.1172,43.9116,3.1313,65.9722 c0.5305,827.9964-2.0989,768.5444,4.5388,768.5335c9.4214,771.8834,10.3396,762.6942,6.9973,821.3646 c-1.2373,21.7214-11.0576,30.2576-33.0034,34.8901c-2.1606,0.4556-4.3384,1.2644-6.4973,1.2305 c-63.876-1.0151-127.834-0.5291-191.5872-3.9023c-29.7783-1.575-35.8049-11.4148-37.7-43.7676 c-3.5305-60.3049-2.5193-1510.2214-0.158-1543.5272c2.239-31.6021,23.9187-25.733,47.8765-35.6176 c54.6541-22.5508-25.6057-42.7161,21.1838-130.9414c33.7813-63.6973,82.2476-11.1856,114.5559-9.1718 C3205.4272,453.0402,3218.6897,488.3447,3227.9963,524.9824z M2846.2664,271.8386c-0.5037-9.7849,6.5535-16.2524,15.6221-18.2691 c12.8162-2.8515,25.9683-5.9675,38.9651-5.919c51.5698,0.1958,99.426-14.421,146.8015-32.9141 c22.3926-8.7406,46.0115-14.4258,69.2783-20.746c3.3994-0.923,9.2473,1.2263,11.5491,3.9743 c2.063,2.4624,2.543,8.9639,0.7075,11.5185c-8.9114,12.401-17.8728,25.027-28.5627,35.8481 c-122.6445,124.1471-124.7437,187.6996-149.2856,229.9224c-12.3777,21.2945-22.0776,22.8477-41.2957,6.9553 c-32.0393-26.4944-64.0549-53.0171-103.2319-85.4474C2838.822,358.7478,2848.5952,317.0616,2846.2664,271.8386z M2763.1636,518.6646c43.0388,8.5521,86.135,16.8462,129.0295,26.0762c13.1936,2.8394,16.5444,13.227,12.5405,25.3505 c-15.2263,46.108-114.5515,190.6132-199.2249,240.5551c-13.239,7.8087-27.8599,2.1388-31.4216-11.5145 c-1.1069-4.2429-2.2424-8.5901-2.4639-12.9349c-4.8938-96.1266-55.376-123.9111-17.4109-140.3542 c45.9194-19.8862,71.9956-55.3792,83.2139-103.6162c4.3364-18.6445,9.6362-22.537,19.2363-23.2805 C2758.8342,518.8296,2761.0967,518.2537,2763.1636,518.6646z M2501.7986,235.1427c17.0378-3.4024,34.7092-7.2748,51.7976-6.0889 c77.197,5.3625,140.177,22.6566,154.7837,28.4892c74.0837,29.572,64.7307,76.5944-8.7063,74.0034 c-77.0774-5.2791-143.1868-26.0592-201.8093-68.018c-4.7363-3.3903-9.9375-10.9579-9.2422-15.763 C2489.3315,242.86,2496.4956,236.2016,2501.7986,235.1427z M2418.7366,349.8551c0.7791-2.6104,7.0964-3.5658,10.9033-5.271 c2.1821,0.2047,4.5076-0.034,6.5156,0.6536c89.1694,30.565,166.2949,77.4891,216.8403,160.2816 c2.2415,3.6718,3.5176,7.9688,4.9944,12.0645c5.7122,15.843-4.4561,31.7112-20.927,33.3824 c-15.7549,1.5977-31.1121-0.3446-44.3035-8.8409c-70.5979-45.4688-134.1658-98.2335-174.218-174.1945 C2416.011,363.1314,2417.0544,355.4886,2418.7366,349.8551z M2368.2661,450.2769c35.8389,45.8434,54.6648,99.3531,64.075,156.3057 c4.4014,26.6392-0.3533,52.378-10.5515,77.0967c-21.8494,52.9568-129.0229-28.9588-123.0081-189.926 c-0.0547-31.3725-2.5291-68.8715,20.8254-78.5302C2344.8308,404.791,2355.6633,434.1555,2368.2661,450.2769z M2240.8445,123.3327 c42.3762-1.181,79.217,35.0473,80.0911,78.7607c0.9702,48.5275-34.2542,84.5123-81.6665,83.4308 c-42.3896-0.9675-78.8279-38.3243-78.9739-80.9619C2160.1665,166.9896,2202.3953,124.4046,2240.8445,123.3327z M2100.6978,622.9077 c18.6729-66.3287,21.0281-135.0714,68.6851-196.006c8.8049-11.2564,25.9814-8.5521,31.7095,5.1602 c11.8762,28.4255,9.6479,31.7031,13.1616,96.5024c-0.0906,51.1241-7.5762,100.5059-33.21,145.6365 c-15.803,27.8235-34.5125,41.1945-49.4778,35.4332c-21.4998-8.277-25.6177-28.5968-29.3447-47.7841 C2099.7559,649.1586,2097.3342,634.8549,2100.6978,622.9077z M2093.5149,355.4093c3.2952,4.3998,4.9988,12.6599,3.2595,17.7619 c-27.7805,81.499-76.2987,147.0101-151.0544,191.4274c-9.2057,5.47-19.9751,8.8167-30.4368,11.55 c-17.837,4.6627-29.578-5.8575-28.6263-24.4858c0.9679-17.592,3.1306-34.7253,12.6438-50.3403 c41.1454-67.5383,98.0341-116.9678,170.3495-148.6515C2077.7012,349.1441,2087.4507,347.3102,2093.5149,355.4093z M1794.6328,294.9241c59.9508-35.5804,124.8379-54.5387,194.4786-54.8202c17.2474,2.223,36.0237-4.8908,50.2468,9.535 c8.2407,8.3571-3.0981,27.7693-29.9966,45.6274c-59.8721,39.748-124.8024,65.4966-198.0608,63.8423 c-17.34-0.3915-36.0613-1.0807-46.8933-18.46C1757.3456,329.3178,1769.3457,309.9324,1794.6328,294.9241z M1760.2496,561.7083 c26.8248,2.3224,28.3525,40.4437,47.1013,58.7144c19.338,18.845,40.6827,33.287,65.8706,42.2978 c14.6479,5.2395,22.7462,15.7517,16.9983,30.2066c-18.7556,47.1685-31.979,95.5746-39.7477,145.7377 c-1.5798,10.2032-13.5541,11.6997-21.2791,6.6754c-60.8521-39.5751-118.0505-70.272-206.4288-190.7706 c-10.2229-13.9388-21.7111-28.0936-17.7012-50.3815c26.5664-5.8632,54.4476-10.6537,81.4897-18.3807 C1711.6501,578.6385,1736.6027,559.6616,1760.2496,561.7083z M1346.3451,182.5511c1.7476-3.0861,7.113-4.8431,11.2118-5.7443 c13.504-2.9704,25.9313,1.2838,38.2802,6.4262c30.4161,12.6664,61.6696,23.5506,91.3014,37.8211 c42.0421,20.2461,84.4188,35.8878,132.2214,35.4162c29.3201-0.2902,31.3125,7.0495,27.7887,47.2485 c-1.7209,39.6275,11.6859,74.9781,41.1067,105.3441c16.1161,16.6334,16.0138,26.2226,1.9091,39.0742 c-35.8356,32.6528-68.2695,68.3368-99.4902,105.2964c-7.4802,8.8555-22.1794,7.7642-28.3853-1.5887 c-7.255-10.936-14.2454-22.2588-19.6188-34.1931c-15.3241-34.0394-31.2606-67.921-44.2587-102.868 C1424.7214,216.6643,1330.9486,209.739,1346.3451,182.5511z M1184.4655,226.4199c30.579-6.9205,61.3781-6.1779,91.4977,1.795 c41.4606,10.9741,72.0621,51.3701,71.6414,92.2741c-0.1785,27.5039-19.1592,63.1943-43.3424,51.6241 c-33.605-16.0777-86.2751-57.0078-102.0265,14.0254c-1.413,6.3712,0.2664,14.1564-2.8512,19.2091 c-2.91,4.7169-10.5236,9.7137-15.6827,9.3376C1075.8989,406.8075,1080.8184,249.8745,1184.4655,226.4199z M1187.5422,501.9972 c14.8094,2.3605,22.8088,12.9203,24.4086,27.4004c10.3278,93.467,0.9843,833.3691,6.4131,833.3691 c0,836.1586,0.9476,790.6461-2.7385,826.9584c-1.4805,14.5901-11.8754,22.9189-25.7218,26.6311 c-4.2362,1.135-8.6831,2.1826-13.0209,2.1355c-59.5128-0.655-119.0656-0.449-178.5151-2.803 c-26.0816-1.032-35.7533-11.927-37.3289-37.262c-5.2332-84.1553-2.5811-1514.8138-2.7587-1521.8931 c-0.6819-27.1633,6.5065-51.2762,19.6071-75.5088c55.0071-101.752,55.3129-151.5887,88.7867-130.0427 C1104.0956,475.0692,1142.9724,494.8931,1187.5422,501.9972z M825.6583,395.9493c18.4276-39.4067,18.6135-80.5647,14.1-122.5098 c-1.5243-14.1661,2.5953-26.1441,17.7754-31.145c204.2855-67.3161,171.0396-57.12,187.651-58.6602 c10.6566,2.3291,15.2872,12.7804,6.0962,25.6693c-27.3174,38.3186-39.1221,82.5571-51.4192,127.1434 c-13.3829,48.5226-30.4958,96.0276-46.4248,143.8294c-2.7372,8.2132-7.3391,15.8867-11.6857,23.4625 c-8.2263,14.3376-21.5831,16.4012-31.5106,3.3992c-23.9666-31.386-47.2293-63.2097-79.1943-87.3412 C822.9968,413.7201,821.9097,403.9667,825.6583,395.9493z M764.0911,541.1555c27.4497,3.8973,75.783,19.7516,122.8346,20.6498 c9.6571,0.1844,14.4723,9.9572,11.1892,19.4769c-19.8702,57.609-118.6263,164.2478-165.532,210.7319 c-10.7577,10.661-23.9128,19.1015-36.6785,27.4748c-10.3366,6.7797-23.4866,2.079-25.8824-9.3052 c-9.4797-45.049-20.179-89.6013-39.434-131.7851c-5.2035-11.3987,0.3857-21.1028,11.6281-26.8867 c3.8904-2.0013,7.8016-3.9662,11.7573-5.8333C753.6032,598.6414,726.9727,538.031,764.0911,541.1555z M480.888,218.536 c15.0303-2.5652,30.209-4.2591,38.4352-5.3762c86.9272,5.9702,160.7681,19.3108,225.3713,79.9701 c29.414,27.6172-15.7416,51.4328-64.0773,42.581c-70.1765-12.8484-134.9869-39.1648-193.2645-80.6707 c-5.227-3.7227-9.1089-9.467-13.2191-14.5908C469.3242,234.4543,473.6162,219.7777,480.888,218.536z M422.8587,344.4264 c124.0027,11.9205,290.3182,222.8407,181.1172,210.1131c-20.4094-1.4755-40.1501-10.9053-59.2437-21.7532 c-65.1805-37.0349-107.8929-94.4413-141.9705-159.1022C393.5599,356.2247,404.0175,342.6159,422.8587,344.4264z M293.067,435.8082 c3.1961-22.9973,19.6135-30.065,36.6138-14.8934c13.0201,11.6188,26.2212,24.0975,35.5027,38.643 c34.7361,54.4373,59.2228,123.2748,47.3921,187.5032c-6.0717,32.9611-33.4868,40.959-58.2604,17.7271 c-21.3348-20.0067-35.4289-44.846-44.0909-72.557c-16.5962-53.0941-14.2511-62.1747-19.7411-124.4375 C291.2623,457.7005,291.5578,446.6698,293.067,435.8082z M131.1506,590.6723c20.9693,0.707,30.1732,13.8434,29.5176,42.1279 c-0.584,25.196-11.9031,36.1539-36.4929,35.3329c-23.2572-0.7783-34.4772-15.9434-34.2392-46.2819 C90.0989,601.1068,105.0566,589.7914,131.1506,590.6723z"/> </g> </svg>