<?xml version="1.0" standalone="no"?>
<!DOCTYPE svg PUBLIC "-//W3C//DTD SVG 20010904//EN"
 "http://www.w3.org/TR/2001/REC-SVG-20010904/DTD/svg10.dtd">
<svg version="1.0" xmlns="http://www.w3.org/2000/svg"
 width="1280.000000pt" height="640.000000pt" viewBox="0 0 1280.000000 640.000000"
 preserveAspectRatio="xMidYMid meet">
<metadata>
Created by potrace 1.15, written by Peter Selinger 2001-2017
</metadata>
<g transform="translate(0.000000,640.000000) scale(0.100000,-0.100000)"
fill="#000000" stroke="none">
<path d="M3965 6133 c-34 -8 -36 -17 -14 -83 53 -161 167 -401 263 -554 31
-49 55 -90 54 -92 -2 -1 -48 -14 -103 -29 -161 -43 -427 -129 -630 -205 -217
-80 -180 -83 -321 26 -186 145 -380 408 -465 632 -23 61 -25 63 -53 58 -16 -4
-32 -9 -35 -12 -20 -19 135 -370 237 -538 239 -393 535 -661 881 -796 l113
-45 -58 -3 c-157 -9 -565 32 -772 77 -617 135 -1138 474 -1412 919 l-32 52
-29 -15 c-16 -9 -29 -21 -29 -27 0 -38 189 -355 301 -504 257 -343 553 -593
903 -765 127 -63 139 -70 109 -64 -10 2 -70 11 -133 20 -388 56 -828 160
-1122 266 -142 51 -407 181 -513 250 -88 58 -247 210 -289 277 -30 48 -35 49
-67 23 l-23 -18 75 -114 c276 -419 687 -784 1114 -988 199 -96 473 -185 630
-207 74 -10 84 -20 29 -28 -249 -34 -335 -40 -594 -40 -442 -1 -770 45 -1140
160 -231 72 -525 203 -710 317 l-75 45 -17 -26 c-10 -15 -18 -30 -18 -34 0 -4
78 -56 172 -116 547 -345 1145 -621 1738 -800 272 -83 548 -144 822 -182 l157
-22 108 101 c585 546 1464 988 2337 1176 223 48 698 116 711 103 3 -2 -26 -27
-62 -54 -92 -67 -251 -220 -340 -328 -191 -230 -347 -540 -423 -838 -140 -546
-54 -1147 232 -1621 167 -279 392 -516 652 -688 53 -35 92 -65 87 -67 -15 -5
-246 36 -415 74 -881 196 -1604 592 -2236 1224 -169 169 -337 357 -474 535
-79 101 -93 113 -133 114 -20 1 -21 -2 -11 -36 34 -131 205 -478 323 -659 30
-47 55 -86 55 -88 0 -2 -39 -18 -86 -36 -275 -103 -593 -318 -760 -511 -126
-144 -208 -300 -247 -464 -17 -72 -60 -386 -53 -392 2 -2 23 45 46 104 108
270 211 434 380 603 174 174 375 299 600 374 103 34 285 76 332 76 16 0 52
-29 118 -96 52 -53 129 -126 170 -163 41 -36 75 -71 75 -76 0 -5 -37 -22 -82
-37 -98 -33 -205 -85 -288 -141 -70 -47 -197 -171 -243 -239 -72 -105 -141
-271 -157 -380 -7 -45 -7 -45 24 -50 30 -4 33 -2 66 66 119 244 431 442 875
554 107 28 117 29 140 14 14 -9 79 -51 145 -93 66 -42 166 -100 222 -129 l102
-52 -61 -46 c-101 -76 -217 -238 -309 -432 l-28 -60 30 -16 c17 -8 32 -14 33
-12 2 2 18 26 37 53 51 76 156 175 239 227 193 120 404 139 639 57 672 -234
1934 -293 3416 -158 827 75 1852 226 2810 414 202 40 389 51 623 37 207 -12
373 -32 532 -62 52 -10 96 -17 97 -16 2 1 6 17 9 34 5 22 2 33 -7 36 -8 2
-129 40 -269 85 -451 143 -640 184 -845 184 -118 1 -165 -6 -521 -71 -837
-153 -1498 -255 -2124 -326 -255 -30 -643 -67 -647 -62 -2 2 32 24 74 49 369
219 685 582 857 983 278 653 221 1392 -152 1984 -33 52 -59 96 -57 98 7 7 386
-165 625 -285 966 -482 1902 -1142 2903 -2046 l197 -178 0 47 c0 51 -23 87
-189 304 -666 868 -1508 1682 -2346 2267 -1116 779 -2224 1199 -3384 1284
-204 15 -712 6 -900 -15 -258 -29 -676 15 -992 103 -113 32 -282 91 -277 97 2
2 49 10 104 18 600 90 1458 111 2079 50 386 -38 746 -95 1065 -169 1300 -303
2464 -893 3545 -1799 236 -197 481 -423 741 -682 146 -145 260 -256 255 -246
-38 70 -384 472 -585 681 -469 483 -859 813 -1361 1150 -726 488 -1549 855
-2375 1060 -1096 271 -2229 291 -3443 60 l-208 -40 -83 55 c-210 140 -340 304
-416 524 -18 50 -35 91 -39 91 -3 -1 -15 -3 -26 -6z m519 -977 c132 -128 251
-206 404 -267 84 -33 91 -38 66 -43 -67 -14 -221 -27 -384 -33 -412 -14 -779
56 -1080 208 -153 76 -153 70 1 112 173 47 421 107 629 151 91 19 174 36 185
39 14 3 32 -10 64 -47 24 -28 76 -82 115 -120z"/>
</g>
</svg>
